<svg width="24" height="24" viewBox="0 0 24 24" fill="none" xmlns="http://www.w3.org/2000/svg">
<mask id="path-1-inside-1_5152_70" fill="white">
<path d="M19 21V19C19 17.9391 18.5786 16.9217 17.8284 16.1716C17.0783 15.4214 16.0609 15 15 15H9C7.93913 15 6.92172 15.4214 6.17157 16.1716C5.42143 16.9217 5 17.9391 5 19V21"/>
</mask>
<path d="M19 21V19C19 17.9391 18.5786 16.9217 17.8284 16.1716C17.0783 15.4214 16.0609 15 15 15H9C7.93913 15 6.92172 15.4214 6.17157 16.1716C5.42143 16.9217 5 17.9391 5 19V21" fill="white"/>
<path d="M18 21C18 21.5523 18.4477 22 19 22C19.5523 22 20 21.5523 20 21H19H18ZM15 15V14V15ZM9 15L9 14L9 15ZM5 19H4H5ZM4 21C4 21.5523 4.44772 22 5 22C5.55228 22 6 21.5523 6 21H5H4ZM19 21H20V19H19H18V21H19ZM19 19H20C20 17.6739 19.4732 16.4021 18.5355 15.4645L17.8284 16.1716L17.1213 16.8787C17.6839 17.4413 18 18.2044 18 19H19ZM17.8284 16.1716L18.5355 15.4645C17.5979 14.5268 16.3261 14 15 14L15 15L15 16C15.7956 16 16.5587 16.3161 17.1213 16.8787L17.8284 16.1716ZM15 15V14H9V15V16H15V15ZM9 15L9 14C7.67392 14 6.40215 14.5268 5.46447 15.4645L6.17157 16.1716L6.87868 16.8787C7.44129 16.3161 8.20435 16 9 16L9 15ZM6.17157 16.1716L5.46447 15.4645C4.52678 16.4021 4 17.6739 4 19H5H6C6 18.2044 6.31607 17.4413 6.87868 16.8787L6.17157 16.1716ZM5 19H4V21H5H6V19H5Z" fill="white" mask="url(#path-1-inside-1_5152_70)"/>
<path d="M12 11C14.2091 11 16 9.20914 16 7C16 4.79086 14.2091 3 12 3C9.79086 3 8 4.79086 8 7C8 9.20914 9.79086 11 12 11Z" fill="white" stroke="white" stroke-width="1.5" stroke-linecap="round" stroke-linejoin="round"/>
</svg>
