<svg width="12" height="12" viewBox="0 0 12 12" fill="none" xmlns="http://www.w3.org/2000/svg">
<path d="M7.60312 2.41641L9 3L9.58313 4.39758C9.61406 4.46016 9.67969 4.5 9.75 4.5C9.82031 4.5 9.88477 4.45898 9.91699 4.39746L10.5 3L11.8976 2.41688C11.9602 2.38594 12 2.32031 12 2.25C12 2.17969 11.959 2.11523 11.8975 2.08301L10.5 1.5L9.91687 0.102656C9.88594 0.0410156 9.82031 0 9.75 0C9.67969 0 9.61523 0.0410156 9.58301 0.102539L9 1.5L7.60242 2.08312C7.54219 2.11523 7.5 2.17969 7.5 2.25C7.5 2.32031 7.54219 2.38594 7.60312 2.41641ZM11.8969 9.58359L10.5 9L9.91687 7.60242C9.88594 7.54219 9.82031 7.5 9.75 7.5C9.67969 7.5 9.61523 7.54102 9.58301 7.60254L9 9L7.60242 9.58313C7.54219 9.61406 7.5 9.67969 7.5 9.75C7.5 9.82031 7.54102 9.88477 7.60254 9.91699L9 10.5L9.58313 11.8976C9.61406 11.9578 9.67969 12 9.75 12C9.82031 12 9.88477 11.959 9.91699 11.8975L10.5 10.5L11.8976 9.91687C11.9602 9.88594 12 9.82031 12 9.75C12 9.67969 11.9602 9.61406 11.8969 9.58359ZM9 5.99063C9 5.85 8.9209 5.71828 8.79199 5.65359L6.15527 4.33383L4.83516 1.69195C4.70918 1.43695 4.29305 1.43695 4.16719 1.69195L2.84531 4.33359L0.208008 5.65312C0.0791016 5.71875 0 5.85 0 5.99063C0 6.13418 0.0791016 6.26297 0.208008 6.32766L2.84473 7.64883L4.16613 10.2902C4.22813 10.4156 4.33828 10.4977 4.5 10.4977C4.6406 10.4977 4.77234 10.4153 4.83398 10.2894L6.15539 7.64796L8.79211 6.32679C8.92031 6.2625 9 6.13594 9 5.99063Z" fill="#612FED"/>
</svg>
